<?xml version="1.0" encoding="utf-8"?>
<!-- Generator: Adobe Illustrator 27.0.0, SVG Export Plug-In . SVG Version: 6.00 Build 0)  -->
<svg version="1.1" id="Layer_1" xmlns="http://www.w3.org/2000/svg" xmlns:xlink="http://www.w3.org/1999/xlink" x="0px" y="0px"
	 viewBox="0 0 142.4 118" style="enable-background:new 0 0 142.4 118;" xml:space="preserve">
<style type="text/css">
	.st0{fill:#FFFFFF;}
	.st1{fill:#03F3D5;}
	.st2{fill:#030933;}
</style>
<rect x="966.9" y="-916.2" width="1853.6" height="2147.7"/>
<g>
	<path class="st0" d="M2037.6,437c-8,0-14.8,0-22.1,0c0-57.8,0-115.1,0-173c6.9,0,13.4,0,20.7,0c0,5.1,0,10,0,17.4
		c13.9-14.8,29.7-20.4,47.6-18.9c18,1.4,33.4,8.4,44.4,23.4c17.8,24.3,15.4,61.7-5.1,82.5c-22.4,22.7-53.5,23.4-85.5,1
		C2037.6,392.4,2037.6,414.5,2037.6,437z M2117,324.6c0.3-24.1-16.5-41.9-39.5-42c-23.2-0.1-40.3,17.3-40.6,41.2
		c-0.3,23.8,16.8,41.9,39.7,42.2C2099.4,366.3,2116.7,348.6,2117,324.6z"/>
	<path class="st0" d="M1861.7,329.3c-7.5,6.9-14.8,13.2-21.4,19.9c-1.7,1.8-2.4,5.2-2.5,7.9c-0.3,6.9-0.4,13.9-0.1,20.8
		c0.2,5.3-1.9,7.1-7,6.8c-4.7-0.3-9.5-0.1-15.3-0.1c-0.2-3-0.4-5.5-0.4-8c0-53.8,0.1-107.6-0.2-161.4c0-7,1.9-9.9,8.9-8.9
		c1.8,0.3,3.8,0.3,5.6,0c6.9-1,8.5,2.4,8.5,8.7c-0.2,32-0.1,63.9-0.1,95.9c0,2.9,0,5.8,0,10.8c3.8-3.1,6.4-4.9,8.8-7.1
		c15.3-14,31-27.7,45.8-42.3c6.9-6.8,13.9-10,23.4-8.7c3.7,0.5,7.4,0.1,10.3,0.1c-15.6,15.9-31.5,31.9-48,48.7
		c19,24.3,37,47.2,55,70.3c-14.9,5.2-26.4,2.1-35.2-8.9C1885.9,359.2,1874,344.5,1861.7,329.3z"/>
	<path class="st0" d="M1687.6,353.1c11.9,4.7,23,10.7,34.8,13.4c9,2,19,0.7,28.3-0.8c7.3-1.2,11.7-6.9,11.7-15
		c0-8.1-5.4-11.2-12-12.7c-10.1-2.4-20.3-4.1-30.4-6.3c-4.1-0.9-8.3-2-12.3-3.4c-11.3-4.2-19.1-11.6-20.5-24.1
		c-1.6-14.4,2.6-26.8,15.7-34.1c21.9-12.1,44.1-9.1,65.8,1c1.8,0.9,3.4,4,3.7,6.2c0.6,4.4,0.2,9,0.2,13.9
		c-10.5-2.9-20.2-6.5-30.2-7.9c-7.4-1.1-15.3,0.1-22.7,1.6c-6.2,1.2-9.8,6-10,12.8c-0.3,7,3.5,11.3,9.7,12.9c11,2.9,22.3,5,33.4,7.6
		c4.1,1,8.3,2,12.2,3.5c11.4,4.2,18.9,11.9,20.2,24.4c1.3,13-3.4,23.5-14.4,30.9c-19.9,13.3-59.9,12.3-79.1-2.1
		C1683.3,368.3,1688.8,359.7,1687.6,353.1z"/>
	<path class="st0" d="M1951,225.7c9.2,0,17.3,0,26,0c0.2,2.3,0.5,4.4,0.4,6.4c-1.1,31.9-2.4,63.8-3.4,95.7c-0.2,5.7-2.6,8-7.8,6.8
		c-4.1-0.9-11.2,3.7-11.6-5.2C1953.4,295.3,1952.3,261,1951,225.7z"/>
	<path class="st0" d="M2013.5,522c8.5-12.3,16.5-22.9,23.3-34.1c4.6-7.7,10.1-10.2,19.6-7.3c-1.1,5.7-2.3,11.5-3.5,17.3
		c-2.2,10.4-4.8,20.8-6.5,31.2c-1.2,7.4-4.8,8.6-11.5,6c2.5-12.1,5-24,7.5-35.9c-0.5-0.3-1-0.6-1.4-0.8c-5,7.2-10,14.5-14.9,21.7
		c-3,4.4-5.7,9.1-9.2,13c-1.6,1.8-5,2.9-7.5,2.8c-1.4-0.1-3.4-3-3.9-5c-3.1-10.9-5.9-21.9-10.3-32.8c-2.2,10.3-4.7,20.5-6.6,30.8
		c-1.1,6.4-3.8,9-11.2,6.3c0.9-4.9,1.8-10,2.9-15c2.5-11.7,5.2-23.4,7.5-35.1c0.8-4.2,2.7-5.9,6.9-5.8c4.3,0.1,7.6,0.3,8.9,5.6
		C2006.3,496.8,2009.8,508.4,2013.5,522z"/>
	<path class="st0" d="M1657.8,480.2c0.7,6.2-1.5,8.7-7.1,7.8c-0.5-0.1-1.1-0.1-1.6-0.1c-24.2-0.7-32.1,7.3-31.5,31.9
		c0.1,5.7,3.1,8.2,8.5,8.2c7.1,0,14.3,0,21.3,0c1.4,6-0.6,8.9-6.1,8.9c-7.7-0.1-15.4,0-23-0.7c-7.6-0.7-12-5.8-10.9-13.1
		c1.8-11.4,4.4-22.8,8-33.8c1.2-3.6,5.8-7.3,9.6-8.6C1635.8,477.2,1646.9,477.9,1657.8,480.2z"/>
	<path class="st0" d="M1680.8,537.5c-19.8,0.1-22.9-3.7-19-23.3c3.7-18.7,23-27.9,39.6-18.3c2.7,1.6,4.5,6.3,4.9,9.8
		c0.4,4.1-1,8.4-1.9,12.5C1700.9,534.7,1697.5,537.4,1680.8,537.5z M1680.2,529.4c10.5,0,20.2-14.4,15.9-24.3
		c-0.7-1.5-3.1-2.8-4.9-3.3c-12.4-3-17.2,0.9-20.2,16.1C1669,527.8,1670.3,529.3,1680.2,529.4z"/>
	<path class="st0" d="M2080.9,537.5c-19.5,0-22.7-3.7-18.9-22.7c0.8-3.9,1-8.4,3.2-11.4c2.7-3.7,6.8-7.9,11-8.8
		c6.6-1.5,13.7-0.8,20.6-0.4c7,0.4,11,4.5,9.9,11.6c-1.1,7.6-2.5,15.2-4.8,22.5C2099.5,535.6,2094.1,537.5,2080.9,537.5z
		 M2080.7,529.4c10.4,0,20.2-15.1,15.6-24.5c-0.7-1.5-3.2-2.7-5-3.2c-12.6-2.9-17.4,1.1-20,16.4
		C2069.7,528,2070.8,529.4,2080.7,529.4z"/>
	<path class="st0" d="M1837.3,518.5c-3.7,7.1-1.2,10.3,5.5,10.6c6.1,0.3,12.2,0.1,19.6,1.9c-2.1,1.9-4,5.1-6.2,5.3
		c-7.4,0.6-14.8,0.5-22.2-0.2c-6.5-0.6-9.4-5.3-8.5-11.3c1-7.1,2-14.5,5-20.8c2-4.1,7.1-7.8,11.6-9.4c4.8-1.7,10.6-1.5,15.7-0.6
		c3.7,0.7,9.3,3.4,9.8,6c1,5.4-0.6,11.4-1.7,17.1c-0.2,0.8-3.8,1.3-5.8,1.3C1852.4,518.6,1844.7,518.5,1837.3,518.5z M1857.8,511.5
		c2.1-6,1-9.4-5.2-10.1c-8.5-1-12.6,1.8-13.9,10.1C1844.9,511.5,1851.1,511.5,1857.8,511.5z"/>
	<path class="st0" d="M2185.5,531.6c-2.1,1.6-4.1,4.5-6.3,4.7c-6.8,0.7-13.8,1-20.6,0.2c-8.5-1-11.2-5.3-10.1-14
		c0.3-2.4,0.8-4.7,1.3-7.1c3.8-19.5,14.9-26.4,34.1-21.2c8,2.2,8.3,8,7.4,14.5c-0.7,5.8-1.7,11.1-9.9,9.9
		c-5.5-0.8-11.2-0.5-16.7,0.1c-2.2,0.2-4.2,2.7-6.3,4.1c1.9,2.1,3.6,5.7,5.8,5.9c6.5,0.8,13.2,0.3,19.8,0.3
		C2184.5,529.9,2185,530.8,2185.5,531.6z M2161.4,511.9c5.9,0,11.1,0.3,16.3-0.2c1.4-0.1,3.6-2.2,3.8-3.7c0.3-1.7-0.7-4.4-2-5.3
		C2173.3,498.1,2163.3,502.7,2161.4,511.9z"/>
	<path class="st0" d="M1745,535.2c1.5-7.2,3.3-14.1,4.3-21.2c0.6-4.2,3.8-9.8-3.4-12c-7.2-2.3-15.2,0.9-17.2,7.5
		c-2,6.6-3.5,13.4-4.5,20.2c-1,6.5-4.3,7.8-11.1,5.7c2.7-12.7,5.2-25.4,8.3-37.9c0.4-1.5,4.4-2.6,6.9-3c3.2-0.5,6.5,0.1,9.7-0.1
		c2.9-0.2,5.8-1.1,8.7-1c11.3,0.1,14.9,4.2,13.2,15.5c-1.1,7.1-2.9,14.1-4,21.2C1754.9,536,1751.7,537.6,1745,535.2z"/>
	<path class="st0" d="M1769.7,535.3c2.6-12.6,5-25.1,7.9-37.4c1.2-5.1,6-5.1,9-1.9c7.7-0.8,14.2-2.3,20.5-2
		c7.8,0.4,10.8,4.6,9.7,12.4c-1.2,8.7-3.2,17.2-5.1,25.8c-1.3,6-5.6,4-10.3,3.5c1.5-7.7,3.2-14.9,4.3-22.2c0.7-4.3,3.8-9.7-3.7-11.7
		c-7.1-1.8-14.8,1-16.7,7c-2.1,6.6-3.6,13.4-4.7,20.2C1779.8,535.1,1777.5,537.9,1769.7,535.3z"/>
	<path class="st0" d="M1926.4,503c-3.3-0.5-5.6-0.9-10.8-1.8c3.5-3.3,5.4-6.7,7.5-6.7c5.1-0.1,6.4-2.9,6.9-6.8
		c0.8-6.6,4.7-6.6,10.2-5c-0.4,3.6-0.7,7-1.2,10.7c3.3,0.5,6.4,0.9,9.6,1.4c0.7,5.1-0.8,8.1-6.2,7.5c-4.8-0.5-6.7,1.9-7.1,6.4
		c-0.3,2.6-1.1,5.2-1.6,7.8c-2.2,11.1-2.2,11.1,8.5,14c0.5,8.2-5.7,5.7-9.8,5.8c-5.9,0.1-11.1-1.7-10.2-9
		C1923.2,519.3,1924.9,511.5,1926.4,503z"/>
	<path class="st0" d="M1907.5,529.2c-1.3,2.9-2.1,6.2-2.9,6.2c-8.3,0.1-17.1,1.2-24.7-1.1c-7.6-2.3-5.5-10.5-4.4-16.7
		c4-22.8,12.5-28,37.3-22.5c1,4.7,0.1,7.1-5.8,6.8c-16.3-1.1-18.8,1.1-21.7,17c-1.4,7.7,0.5,10.1,8.5,10.4c2.1,0.1,4.2-0.1,6.4-0.1
		C1902,529.2,1903.8,529.2,1907.5,529.2z"/>
	<path class="st1" d="M1964.7,356.6c8.7,0.1,14.5,6,14.2,14.7c-0.2,8.4-6.6,14.5-14.9,14.3c-8.3-0.2-14.5-6.7-14.4-14.9
		C1949.7,362.5,1956.1,356.5,1964.7,356.6z"/>
	<path class="st0" d="M2131.1,497.8c5.4-1.8,10-3.3,15.2-5c1.3,6.3,0.5,9.7-5.8,10.4c-7.5,0.8-11.7,5.6-13.2,12.9
		c-0.9,4.4-2.4,8.7-2.9,13.2c-0.7,6.2-3.5,8.6-11,6.1c2.7-12.8,5.1-26,8.4-38.9C2122.9,492.5,2128.1,493.5,2131.1,497.8z"/>
	<path class="st0" d="M2208.7,527.2c-0.4,9.6-1.2,10.2-10.9,8.2C2197.7,525.9,2198.1,525.6,2208.7,527.2z"/>
</g>
<path class="st0" d="M2520.9-363.2c0,16.2,0,32.4,0,48.5c-0.5,3.1-1,6.2-1.4,9.3c-4.8,47.3-7.5,95-14.8,141.9
	c-16.4,104.6-51,203.2-104,295.3c-19.7,34.3-48.1,49.7-87,47.8c-29.7-1.5-59.4-2.7-89.1-3.8c-82.2-3.2-164.4-7.3-246.7-9.2
	c-53.1-1.3-106.3-1.2-159.3,1.5c-69.8,3.5-138.7,16.1-207,30.4c-36.1,7.6-63.2,27-74.9,63.1c-12,36.6-4.9,69.9,20.6,99.2
	c10,11.5,19.2,23.8,29.3,36.4c-2.3,0.3-2.9,0.5-3.4,0.4c-59.7-11.7-111.9-37.4-153.7-82.3c-57.3-61.7-81.3-136.2-83.6-218.9
	c-1.8-65.7,9.1-129.8,23.3-193.7c18.8-84.7,68.4-142.5,149-174.1c124-48.6,250.7-88.2,380.8-116.5c92.3-20.1,185.5-34.6,279.6-42.4
	c88.2-7.3,176.6-6.1,265-5.2c26.3,0.3,48.3,12.2,62.1,35.1C2512.6-389,2516-375.6,2520.9-363.2z M2296.8-211.2
	c-0.2-2.9-0.6-8.4-1-13.9c-5.3-64.1-61.7-105.7-124.6-91.9c-84.2,18.5-144.1,97.1-140.6,184.4c2.9,71.3,61.7,115.1,130.9,97.5
	C2241.3-55.4,2295-124.2,2296.8-211.2z M1792.4,13.7c5.7-0.7,11.5-0.9,17.1-2.1c53.5-11.6,91.9-55.3,97.9-111
	c6.3-58.3-40.9-97.7-97-80.9c-52.6,15.7-91.1,72.3-86.4,127C1727.3-13.6,1754.8,13.1,1792.4,13.7z M1513.9,11.2
	c-0.4,31.4,25.1,53.3,54.2,46.5c29-6.7,56.6-40,57.8-69.7c1.2-30.1-19.1-49.4-48.9-46.5C1543.7-55.2,1514.4-22.8,1513.9,11.2z"/>
<path class="st2" d="M2296.8-211.2c-1.8,87-55.5,155.8-135.4,176.1c-69.1,17.6-128-26.3-130.9-97.5
	c-3.5-87.3,56.4-165.9,140.6-184.4c63-13.8,119.3,27.8,124.6,91.9C2296.2-219.6,2296.5-214.1,2296.8-211.2z"/>
<path class="st2" d="M1792.4,13.7c-37.5-0.6-65-27.3-68.4-67c-4.6-54.7,33.9-111.3,86.4-127c56.1-16.8,103.3,22.5,97,80.9
	c-6,55.8-44.4,99.4-97.9,111C1803.9,12.9,1798.1,13,1792.4,13.7z"/>
<path class="st2" d="M1513.9,11.2c0.5-34.1,29.8-66.4,63-69.7c29.9-2.9,50.1,16.3,48.9,46.5c-1.2,29.6-28.8,63-57.8,69.7
	C1539,64.5,1513.5,42.6,1513.9,11.2z"/>
<g>
	<g>
		<path class="st2" d="M82.3,100.2c-0.9,0-1.6,0-2.4,0c0-6.2,0-12.3,0-18.4c0.7,0,1.4,0,2.2,0c0,0.5,0,1.1,0,1.9
			c1.5-1.6,3.2-2.2,5.1-2c1.9,0.2,3.6,0.9,4.7,2.5c1.9,2.6,1.6,6.6-0.5,8.8c-2.4,2.4-5.7,2.5-9.1,0.1
			C82.3,95.4,82.3,97.8,82.3,100.2z M90.8,88.2c0-2.6-1.8-4.5-4.2-4.5c-2.5,0-4.3,1.8-4.3,4.4c0,2.5,1.8,4.5,4.2,4.5
			C88.9,92.6,90.7,90.7,90.8,88.2z"/>
		<path class="st2" d="M63.6,88.7c-0.8,0.7-1.6,1.4-2.3,2.1C61.1,91,61,91.4,61,91.7c0,0.7,0,1.5,0,2.2c0,0.6-0.2,0.8-0.8,0.7
			c-0.5,0-1,0-1.6,0c0-0.3,0-0.6,0-0.9c0-5.7,0-11.5,0-17.2c0-0.7,0.2-1.1,1-0.9c0.2,0,0.4,0,0.6,0c0.7-0.1,0.9,0.3,0.9,0.9
			c0,3.4,0,6.8,0,10.2c0,0.3,0,0.6,0,1.2c0.4-0.3,0.7-0.5,0.9-0.8c1.6-1.5,3.3-3,4.9-4.5c0.7-0.7,1.5-1.1,2.5-0.9
			c0.4,0.1,0.8,0,1.1,0c-1.7,1.7-3.4,3.4-5.1,5.2c2,2.6,3.9,5,5.9,7.5c-1.6,0.6-2.8,0.2-3.8-1C66.1,91.9,64.9,90.3,63.6,88.7z"/>
		<path class="st2" d="M45,91.2c1.3,0.5,2.4,1.1,3.7,1.4c1,0.2,2,0.1,3-0.1c0.8-0.1,1.2-0.7,1.2-1.6c0-0.9-0.6-1.2-1.3-1.4
			c-1.1-0.3-2.2-0.4-3.2-0.7c-0.4-0.1-0.9-0.2-1.3-0.4c-1.2-0.4-2-1.2-2.2-2.6c-0.2-1.5,0.3-2.9,1.7-3.6c2.3-1.3,4.7-1,7,0.1
			c0.2,0.1,0.4,0.4,0.4,0.7c0.1,0.5,0,1,0,1.5c-1.1-0.3-2.2-0.7-3.2-0.8c-0.8-0.1-1.6,0-2.4,0.2c-0.7,0.1-1,0.6-1.1,1.4
			c0,0.7,0.4,1.2,1,1.4c1.2,0.3,2.4,0.5,3.6,0.8c0.4,0.1,0.9,0.2,1.3,0.4c1.2,0.4,2,1.3,2.2,2.6c0.1,1.4-0.4,2.5-1.5,3.3
			c-2.1,1.4-6.4,1.3-8.4-0.2C44.5,92.8,45.1,91.9,45,91.2z"/>
		<path class="st2" d="M73.1,77.6c1,0,1.8,0,2.8,0c0,0.3,0.1,0.5,0,0.7c-0.1,3.4-0.3,6.8-0.4,10.2c0,0.6-0.3,0.8-0.8,0.7
			c-0.4-0.1-1.2,0.4-1.2-0.6C73.3,85.1,73.2,81.4,73.1,77.6z"/>
		<path class="st2" d="M79.7,109.2c0.9-1.3,1.8-2.4,2.5-3.6c0.5-0.8,1.1-1.1,2.1-0.8c-0.1,0.6-0.2,1.2-0.4,1.8
			c-0.2,1.1-0.5,2.2-0.7,3.3c-0.1,0.8-0.5,0.9-1.2,0.6c0.3-1.3,0.5-2.6,0.8-3.8c-0.1,0-0.1-0.1-0.2-0.1c-0.5,0.8-1.1,1.5-1.6,2.3
			c-0.3,0.5-0.6,1-1,1.4c-0.2,0.2-0.5,0.3-0.8,0.3c-0.2,0-0.4-0.3-0.4-0.5c-0.3-1.2-0.6-2.3-1.1-3.5c-0.2,1.1-0.5,2.2-0.7,3.3
			c-0.1,0.7-0.4,1-1.2,0.7c0.1-0.5,0.2-1.1,0.3-1.6c0.3-1.2,0.6-2.5,0.8-3.7c0.1-0.4,0.3-0.6,0.7-0.6c0.5,0,0.8,0,0.9,0.6
			C79,106.5,79.3,107.8,79.7,109.2z"/>
		<path class="st2" d="M41.8,104.8c0.1,0.7-0.2,0.9-0.8,0.8c-0.1,0-0.1,0-0.2,0c-2.6-0.1-3.4,0.8-3.4,3.4c0,0.6,0.3,0.9,0.9,0.9
			c0.8,0,1.5,0,2.3,0c0.2,0.6-0.1,1-0.7,0.9c-0.8,0-1.6,0-2.5-0.1c-0.8-0.1-1.3-0.6-1.2-1.4c0.2-1.2,0.5-2.4,0.8-3.6
			c0.1-0.4,0.6-0.8,1-0.9C39.5,104.5,40.6,104.5,41.8,104.8z"/>
		<path class="st2" d="M44.3,110.9c-2.1,0-2.4-0.4-2-2.5c0.4-2,2.5-3,4.2-2c0.3,0.2,0.5,0.7,0.5,1c0,0.4-0.1,0.9-0.2,1.3
			C46.4,110.6,46,110.9,44.3,110.9z M44.2,110c1.1,0,2.1-1.5,1.7-2.6c-0.1-0.2-0.3-0.3-0.5-0.3c-1.3-0.3-1.8,0.1-2.2,1.7
			C43,109.8,43.1,110,44.2,110z"/>
		<path class="st2" d="M86.9,110.9c-2.1,0-2.4-0.4-2-2.4c0.1-0.4,0.1-0.9,0.3-1.2c0.3-0.4,0.7-0.8,1.2-0.9c0.7-0.2,1.5-0.1,2.2,0
			c0.8,0,1.2,0.5,1.1,1.2c-0.1,0.8-0.3,1.6-0.5,2.4C88.9,110.7,88.3,110.9,86.9,110.9z M86.9,110c1.1,0,2.2-1.6,1.7-2.6
			c-0.1-0.2-0.3-0.3-0.5-0.3c-1.3-0.3-1.9,0.1-2.1,1.7C85.7,109.9,85.8,110,86.9,110z"/>
		<path class="st2" d="M60.9,108.9c-0.4,0.8-0.1,1.1,0.6,1.1c0.6,0,1.3,0,2.1,0.2c-0.2,0.2-0.4,0.5-0.7,0.6c-0.8,0.1-1.6,0.1-2.4,0
			c-0.7-0.1-1-0.6-0.9-1.2c0.1-0.8,0.2-1.5,0.5-2.2c0.2-0.4,0.8-0.8,1.2-1c0.5-0.2,1.1-0.2,1.7-0.1c0.4,0.1,1,0.4,1,0.6
			c0.1,0.6-0.1,1.2-0.2,1.8c0,0.1-0.4,0.1-0.6,0.1C62.6,108.9,61.7,108.9,60.9,108.9z M63.1,108.1c0.2-0.6,0.1-1-0.6-1.1
			c-0.9-0.1-1.3,0.2-1.5,1.1C61.8,108.1,62.4,108.1,63.1,108.1z"/>
		<path class="st2" d="M98.1,110.3c-0.2,0.2-0.4,0.5-0.7,0.5c-0.7,0.1-1.5,0.1-2.2,0c-0.9-0.1-1.2-0.6-1.1-1.5
			c0-0.3,0.1-0.5,0.1-0.8c0.4-2.1,1.6-2.8,3.6-2.3c0.9,0.2,0.9,0.9,0.8,1.5c-0.1,0.6-0.2,1.2-1.1,1.1c-0.6-0.1-1.2-0.1-1.8,0
			c-0.2,0-0.4,0.3-0.7,0.4c0.2,0.2,0.4,0.6,0.6,0.6c0.7,0.1,1.4,0,2.1,0C98,110.1,98,110.2,98.1,110.3z M95.5,108.2
			c0.6,0,1.2,0,1.7,0c0.2,0,0.4-0.2,0.4-0.4c0-0.2-0.1-0.5-0.2-0.6C96.8,106.7,95.7,107.2,95.5,108.2z"/>
		<path class="st2" d="M51.1,110.6c0.2-0.8,0.4-1.5,0.5-2.3c0.1-0.4,0.4-1-0.4-1.3c-0.8-0.2-1.6,0.1-1.8,0.8
			c-0.2,0.7-0.4,1.4-0.5,2.2c-0.1,0.7-0.5,0.8-1.2,0.6c0.3-1.4,0.6-2.7,0.9-4c0-0.2,0.5-0.3,0.7-0.3c0.3-0.1,0.7,0,1,0
			c0.3,0,0.6-0.1,0.9-0.1c1.2,0,1.6,0.5,1.4,1.7c-0.1,0.8-0.3,1.5-0.4,2.3C52.2,110.7,51.8,110.9,51.1,110.6z"/>
		<path class="st2" d="M53.7,110.7c0.3-1.3,0.5-2.7,0.8-4c0.1-0.5,0.6-0.5,1-0.2c0.8-0.1,1.5-0.2,2.2-0.2c0.8,0,1.2,0.5,1,1.3
			c-0.1,0.9-0.3,1.8-0.5,2.7c-0.1,0.6-0.6,0.4-1.1,0.4c0.2-0.8,0.3-1.6,0.5-2.4c0.1-0.5,0.4-1-0.4-1.2c-0.8-0.2-1.6,0.1-1.8,0.7
			c-0.2,0.7-0.4,1.4-0.5,2.1C54.8,110.6,54.6,110.9,53.7,110.7z"/>
		<path class="st2" d="M70.4,107.2c-0.3-0.1-0.6-0.1-1.1-0.2c0.4-0.3,0.6-0.7,0.8-0.7c0.5,0,0.7-0.3,0.7-0.7
			c0.1-0.7,0.5-0.7,1.1-0.5c0,0.4-0.1,0.7-0.1,1.1c0.4,0.1,0.7,0.1,1,0.1c0.1,0.5-0.1,0.9-0.7,0.8c-0.5-0.1-0.7,0.2-0.8,0.7
			c0,0.3-0.1,0.6-0.2,0.8c-0.2,1.2-0.2,1.2,0.9,1.5c0.1,0.9-0.6,0.6-1,0.6c-0.6,0-1.2-0.2-1.1-1C70.1,108.9,70.3,108.1,70.4,107.2z"
			/>
		<path class="st2" d="M68.4,110c-0.1,0.3-0.2,0.7-0.3,0.7c-0.9,0-1.8,0.1-2.6-0.1c-0.8-0.2-0.6-1.1-0.5-1.8c0.4-2.4,1.3-3,4-2.4
			c0.1,0.5,0,0.8-0.6,0.7c-1.7-0.1-2,0.1-2.3,1.8c-0.1,0.8,0.1,1.1,0.9,1.1c0.2,0,0.5,0,0.7,0C67.8,110,68,110,68.4,110z"/>
		<path class="st1" d="M74.5,91.6c0.9,0,1.5,0.6,1.5,1.6c0,0.9-0.7,1.5-1.6,1.5c-0.9,0-1.5-0.7-1.5-1.6
			C72.9,92.2,73.6,91.6,74.5,91.6z"/>
		<path class="st2" d="M92.3,106.6c0.6-0.2,1.1-0.3,1.6-0.5c0.1,0.7,0.1,1-0.6,1.1c-0.8,0.1-1.2,0.6-1.4,1.4
			c-0.1,0.5-0.3,0.9-0.3,1.4c-0.1,0.7-0.4,0.9-1.2,0.7c0.3-1.4,0.5-2.8,0.9-4.1C91.4,106.1,92,106.2,92.3,106.6z"/>
		<path class="st2" d="M100.5,109.8c0,1-0.1,1.1-1.2,0.9C99.4,109.6,99.4,109.6,100.5,109.8z"/>
	</g>
	<path class="st2" d="M133.8,14.9c0,1.7,0,3.4,0,5.2c0,0.3-0.1,0.7-0.1,1c-0.5,5-0.8,10.1-1.6,15.1c-1.7,11.2-5.4,21.7-11.1,31.5
		c-2.1,3.7-5.1,5.3-9.3,5.1c-3.2-0.2-6.3-0.3-9.5-0.4c-8.8-0.3-17.5-0.8-26.3-1c-5.7-0.1-11.3-0.1-17,0.2
		c-7.4,0.4-14.8,1.7-22.1,3.2c-3.9,0.8-6.7,2.9-8,6.7c-1.3,3.9-0.5,7.5,2.2,10.6c1.1,1.2,2,2.5,3.1,3.9c-0.2,0-0.3,0.1-0.4,0
		c-6.4-1.2-11.9-4-16.4-8.8c-6.1-6.6-8.7-14.5-8.9-23.3c-0.2-7,1-13.8,2.5-20.6c2-9,7.3-15.2,15.9-18.6c13.2-5.2,26.7-9.4,40.6-12.4
		c9.8-2.1,19.8-3.7,29.8-4.5c9.4-0.8,18.8-0.7,28.2-0.6c2.8,0,5.2,1.3,6.6,3.7C132.9,12.1,133.3,13.5,133.8,14.9z M109.9,31.1
		c0-0.3-0.1-0.9-0.1-1.5c-0.6-6.8-6.6-11.3-13.3-9.8c-9,2-15.4,10.4-15,19.7c0.3,7.6,6.6,12.3,14,10.4
		C104,47.7,109.7,40.3,109.9,31.1z M56.2,55c0.6-0.1,1.2-0.1,1.8-0.2c5.7-1.2,9.8-5.9,10.4-11.8c0.7-6.2-4.4-10.4-10.3-8.6
		c-5.6,1.7-9.7,7.7-9.2,13.5C49.2,52.1,52.2,55,56.2,55z M26.5,54.8c0,3.3,2.7,5.7,5.8,5c3.1-0.7,6-4.3,6.2-7.4c0.1-3.2-2-5.3-5.2-5
		C29.7,47.7,26.5,51.1,26.5,54.8z"/>
	<path class="st1" d="M109.9,31.1c-0.2,9.3-5.9,16.6-14.4,18.8c-7.4,1.9-13.6-2.8-14-10.4c-0.4-9.3,6-17.7,15-19.7
		c6.7-1.5,12.7,3,13.3,9.8C109.9,30.2,109.9,30.8,109.9,31.1z"/>
	<path class="st1" d="M56.2,55c-4-0.1-6.9-2.9-7.3-7.1c-0.5-5.8,3.6-11.9,9.2-13.5c6-1.8,11,2.4,10.3,8.6
		c-0.6,5.9-4.7,10.6-10.4,11.8C57.4,55,56.8,55,56.2,55z"/>
	<path class="st1" d="M26.5,54.8c0.1-3.6,3.2-7.1,6.7-7.4c3.2-0.3,5.3,1.7,5.2,5c-0.1,3.2-3.1,6.7-6.2,7.4
		C29.2,60.5,26.4,58.1,26.5,54.8z"/>
</g>
</svg>
