<?xml version="1.0" encoding="utf-8"?>
<!-- Generator: Adobe Illustrator 27.0.0, SVG Export Plug-In . SVG Version: 6.00 Build 0)  -->
<svg version="1.1" id="Layer_1" xmlns="http://www.w3.org/2000/svg" xmlns:xlink="http://www.w3.org/1999/xlink" x="0px" y="0px"
	 viewBox="0 0 496.5 445.4" style="enable-background:new 0 0 496.5 445.4;" xml:space="preserve">
<style type="text/css">
	.st0{fill:#1B3D4D;}
	.st1{fill:#FFFFFF;}
</style>
<rect x="-861.2" y="-314.3" class="st0" width="300.3" height="251.2"/>
<g>
	<g>
		<path class="st1" d="M266.8,257.7c19-11.3,36.8-22,55-32.9c1,1.8,1.9,3.3,2.9,4.8c16.9,27.7,56.7,36.9,82.7,19.1
			c29.3-20.1,26.4-61.5-5.4-77.2c-10.7-5.3-22.1-7.3-33.8-7.4c-21.5-0.1-42.8,2.1-63.5,8.6c-4.4,1.4-8.7,3.1-14.4,5.1
			c9.7-57.7,19.2-114.6,28.7-171.5c51.9,0,103.4,0,155.1,0c0,20.3,0,40.4,0,61.1c-2,0.1-4.1,0.3-6.2,0.3c-30.8,0-61.7,0.1-92.5-0.1
			c-4.6,0-6.7,0.8-7.3,6c-1.3,10.9-3.5,21.6-5.3,32.5c-0.1,0.8,0.1,1.6,0,1.3c11.6-0.2,22.8-1.1,34-0.4
			c28.7,1.6,51.9,14.8,71.6,35.3c38,39.7,37.3,107.8-10.2,148c-26.6,22.5-57.3,31.5-91.7,28.6c-33.1-2.7-61.4-15.5-83.8-40.2
			C276.9,272.3,272.3,265.1,266.8,257.7z"/>
		<path class="st1" d="M255.3,319.4c-21.4,0-42.7,0-64.7,0c0-51.7,0-103.3,0-155c-0.5-0.2-1-0.4-1.5-0.6
			c-32,35.9-64.1,71.9-97.3,109.2c-1.1-1.8-1.8-3.5-2.9-4.8C61.6,237.6,34.3,207,7.1,176.3c-1.2-1.4-2.4-3.4-2.4-5.1
			c-0.1-29.3-0.1-58.6-0.1-89.5c29.7,32.3,58.5,63.7,87.9,95.6C146.6,118.3,200.6,59.5,255.3,0C255.3,107,255.3,213,255.3,319.4z"/>
		<path class="st1" d="M3.1,352.2c8,9.6,15.5,18.7,23.4,28.2c7.8-9.4,15.4-18.5,23.6-28.3c0,16.2,0,31.5,0,47.2c-2.2,0-4.5,0-7.5,0
			c0-8,0-16.2,0-24.3c-0.5-0.2-0.9-0.3-1.4-0.5c-4.8,5.8-9.5,11.5-14.6,17.7c-5.1-6.1-9.8-11.8-15.6-18.7c0,9.5,0,17.5,0,25.9
			c-3,0-5.2,0-7.9,0C3.1,384.1,3.1,368.7,3.1,352.2z"/>
		<path class="st1" d="M94.3,352.6c14.9,0.7,27,10.3,27,20.7c0,18.4-12.9,27.4-23.4,27.4c-16,0-25.8-12.4-25.9-21.6
			C71.7,363.2,82.1,353.1,94.3,352.6z M112.7,377.6c-0.2-9.7-6.9-18-14.5-17.9c-9.6,0.2-18.5,7.4-18.4,14.7
			c0.2,12.4,7.3,18.3,14.7,18.5C105.4,393.4,112.9,386.7,112.7,377.6z"/>
		<path class="st1" d="M467.1,353.3c9.8,0,19.2,0,29,0c0,2.4,0,4.6,0,7.2c-6.9,0-13.7,0-20.9,0c0,3.8,0,7.2,0,11.1
			c6.2,0,12.5,0,19.1,0c0,2.7,0,4.9,0,7.7c-6.4,0-12.6,0-19.2,0c0,4.5,0,8.4,0,12.8c7.3,0,14.2,0,21.4,0c0,2.7,0,4.8,0,7.2
			c-9.8,0-19.4,0-29.4,0C467.1,384.3,467.1,369.1,467.1,353.3z"/>
		<path class="st1" d="M258.3,371.8c0,2.8,0,4.9,0,7.5c-6.5,0-12.7,0-19.4,0c0,4.4,0,8.3,0,12.7c7.1,0,14,0,21.2,0
			c0,2.7,0,4.8,0,7.3c-9.6,0-19.3,0-29.4,0c0-15.1,0-30.2,0-45.7c9.4,0,18.8,0,28.6,0c0,2.2,0,4.4,0,7c-6.8,0-13.4,0-20.4,0
			c0,3.8,0,7.2,0,11.2C245.3,371.8,251.7,371.8,258.3,371.8z"/>
		<path class="st1" d="M176.8,399.2c-5.8,1.2-9.8,0.7-12.4-4.8c-1.9-4.1-4.9-7.8-7.9-12.4c-3,4.5-6,8.3-8.1,12.5
			c-2.5,5.2-6.3,6.2-12.1,4.7c4.2-6.5,8.1-13,12.5-19.2c2.2-3.1,2.1-5.4,0-8.4c-4-5.6-7.6-11.6-11.7-17.9c5.4-0.9,9.4-1.2,11.9,4.1
			c1.8,3.9,4.6,7.3,7.5,11.8c2.6-4.1,5.3-7.4,7.1-11.2c2.5-5.3,6.3-6,12.1-4.6c-4,6.3-7.6,12.4-11.6,18.2c-2,2.9-2,5,0.1,7.9
			C168.5,386,172.5,392.5,176.8,399.2z"/>
		<path class="st1" d="M331.5,379.5c0,7.1,0,13.3,0,19.8c-2.9,0-5.4,0-8.5,0c0-7.7,0-15.4,0-23c0-6.5-0.1-13,0.1-19.5
			c0-1.2,1.4-3.5,2.2-3.5c8.6-0.3,17.2-0.2,26-0.2c0,2.7,0,4.8,0,7.3c-6.5,0-12.7,0-19.4,0c0,4,0,7.5,0,11.8c5.6,0,11.3,0,17.3,0
			c0,2.7,0,4.6,0,7.2C343.6,379.5,337.8,379.5,331.5,379.5z"/>
		<path class="st1" d="M446.4,353.8c-7.4,15.9-14.6,31.4-22.2,48c-7.5-16.4-14.7-31.9-21.9-47.4c6.6-2.4,7.9-1.9,10.5,4
			c3.6,8,7.2,16.1,11.3,25.2c3.9-8.7,7.5-16.4,11-24.2C438.1,352.4,438.1,352.4,446.4,353.8z"/>
		<path class="st1" d="M132.7,431.6c-1.2,1-2.4,2.9-3.6,2.9c-42.8,0.1-85.6,0-128.3,0c-0.1,0-0.3-0.1-0.8-0.4c0-1.2,0-2.5,0-4.1
			c43.9,0,87.7,0,131.4,0C131.8,430.6,132.3,431.1,132.7,431.6z"/>
		<path class="st1" d="M493.2,430.2c1.1,3.1,0.5,4.6-2.9,4.6c-37-0.1-74-0.1-111,0c-3.7,0-3.6-1.8-2.9-4.6
			C415.3,430.2,454.1,430.2,493.2,430.2z"/>
		<path class="st1" d="M206.2,399.6c-3.2,0-5.5,0-8.1,0c0-15.3,0-30.5,0-45.7c7.8-1.8,8.1-1.5,8.1,6
			C206.2,372.9,206.2,386,206.2,399.6z"/>
		<path class="st1" d="M381.2,399.5c-2.8,0-5.2,0-8.2,0c0-8,0-15.8,0-23.6c0-5.3,0-10.6,0-16c0-7.5,0.2-7.7,8.2-6.1
			C381.2,368.8,381.2,383.9,381.2,399.5z"/>
		<path class="st1" d="M163.1,421.1c13.7-1.1,20.9,2.5,20.9,9.9c0.1,12.6-7,14.6-20.9,13.5C163.1,436.7,163.1,428.9,163.1,421.1z
			 M177.2,424.9c-3.3,0-6.4,0-9.7,0c0,5.3,0,10.4,0,16.7c4.1-1.2,7.6-2.2,11-3.5c0.6-0.2,1-2,0.9-2.9
			C178.8,431.8,178,428.4,177.2,424.9z"/>
		<path class="st1" d="M317.4,445.4c-4.6-5-9.2-9.9-13.7-14.9c-0.4,0.1-0.8,0.2-1.1,0.3c0,2.7,0.3,5.5-0.1,8.1
			c-0.3,2.1,2,6.2-3.6,5.5c0-7.7,0-15.3,0-23.9c5.4,5.1,10.2,9.6,16.1,15.2c0-4.9-0.1-8.6,0.1-12.3c0.1-0.9,1.3-1.7,2.1-2.6
			c0.7,0.9,2,1.7,2,2.6c0.2,6.9,0.1,13.9,0.1,20.8C318.6,444.6,318,445,317.4,445.4z"/>
		<path class="st1" d="M284.2,426.1c-7.5-3.2-13.5-1.5-15.3,4.1c-1.2,3.7,2,9.6,5.9,10.7c4.3,1.3,6.9-0.5,7.7-5.3
			c-1.1-2.4-6.9,1.4-5.6-4.4c3.2,0,6.2,0,9.3,0c1.6,8.6-0.2,12.9-5.8,13.6c-8.1,1.1-15.1-3.6-15.8-10.6c-0.6-6.5,4.4-13.5,10-13.9
			C281.9,419.9,284.1,421.1,284.2,426.1z"/>
		<path class="st1" d="M195.7,421.2c12.6-1.3,14.3-0.9,14.4,3.4c-1.8,0-3.6,0-5.4,0c-1.6,0-3.2,0.1-5,0.2c0,1.9,0,3.5,0,5.8
			c2.7,0,5.1-0.2,7.6,0.1c0.8,0.1,1.6,1.2,2.3,1.8c-0.8,0.6-1.5,1.7-2.4,1.8c-2.3,0.3-4.6,0.1-7.4,0.1c0,2.2,0,4,0,6.4
			c3.4,0,6.8,0,10.2,0c0,4.2-4.4,5.1-14.3,3.3C195.7,436.6,195.7,429,195.7,421.2z"/>
		<path class="st1" d="M344.1,424.9c-2.7,0-5.4,0-9.7,0c1.8,2.3,2.5,3.8,3.7,4.7c1.6,1.2,4,1.5,5.2,2.9c1.5,1.9,3.2,4.5,3,6.7
			c-0.1,1.9-2.3,4.3-4.2,5.3c-4.5,2.4-9.7,0-11-4.5c2.7,0.3,5.5,0.7,8.3,0.7c1.1,0,2.1-1.1,3.2-1.7c-0.7-1.2-1.2-2.7-2.2-3.5
			c-1.8-1.4-3.9-2.7-6.1-3.4c-4.3-1.4-3.7-5-2.4-7.2c1.2-2,4.3-3.5,6.9-4.1C341.5,420,344.6,420.7,344.1,424.9z"/>
		<path class="st1" d="M234.4,425.2c-0.3-0.1-0.6-0.2-0.9-0.2c-2.3,0.3-4.6,0.5-7,0.8c1.5,1.7,2.9,3.4,4.5,5c0.8,0.8,2.1,1,3,1.7
			c2.8,2.1,4.7,5.1,2.6,8.1c-1.4,2.1-4.4,3.5-7,4.3c-1.9,0.6-4.2-0.2-6.6-0.5c-0.5-1.6-0.9-3.1-1.3-4.2c3.9,0,7.6,0,11.5,0
			c0.1-5.2-3.8-5.9-6.5-7.3c-3.6-1.8-6.3-3.5-4.6-8.2c1.7-4.3,5.1-5,8.9-4c1.6,0.4,2.9,2.1,4.3,3.1
			C235.1,424.4,234.7,424.8,234.4,425.2z"/>
		<path class="st1" d="M250.5,420.3c0.9,1.3,2.5,2.5,2.6,3.9c0.3,5.8,0.3,11.6,0,17.4c-0.1,1.3-1.8,2.5-2.7,3.7
			c-0.5-0.3-0.9-0.6-1.4-0.9c0-7.6,0-15.2,0-22.8C249.5,421.1,250,420.7,250.5,420.3z"/>
	</g>
</g>
</svg>
